  0
SECTION
  2
HEADER
  9
$ACADVER
  1
AC1014
  9
$HANDSEED
  5
FFFF
  9
$INSUNITS
 70
     0
  9
$MEASUREMENT
 70
     1
  0
ENDSEC
  0
SECTION
  2
TABLES
  0
TABLE
  2
VPORT
  5
8
330
0
100
AcDbSymbolTable
 70
     4
  0
VPORT
  5
2E
330
8
100
AcDbSymbolTableRecord
100
AcDbViewportTableRecord
  2
*ACTIVE
 70
     0
 10
0.0
 20
0.0
 11
1.0
 21
1.0
 12
210.0
 22
148.5
 13
0.0
 23
0.0
 14
10.0
 24
10.0
 15
10.0
 25
10.0
 16
0.0
 26
0.0
 36
1.0
 17
0.0
 27
0.0
 37
0.0
 40
341.0
 41
1.24
 42
50.0
 43
0.0
 44
0.0
 50
0.0
 51
0.0
 71
     0
 72
   100
 73
     1
 74
     3
 75
     0
 76
     0
 77
     0
 78
     0
  0
ENDTAB
  0
TABLE
  2
LTYPE
  5
5
330
0
100
AcDbSymbolTable
 70
     1
  0
LTYPE
  5
14
330
5
100
AcDbSymbolTableRecord
100
AcDbLinetypeTableRecord
  2
BYBLOCK
 70
     0
  3

 72
    65
 73
     0
 40
0.0
  0
LTYPE
  5
15
330
5
100
AcDbSymbolTableRecord
100
AcDbLinetypeTableRecord
  2
BYLAYER
 70
     0
  3

 72
    65
 73
     0
 40
0.0
  0
LTYPE
  5
16
330
5
100
AcDbSymbolTableRecord
100
AcDbLinetypeTableRecord
  2
CONTINUOUS
 70
     0
  3
Solid line
 72
    65
 73
     0
 40
0.0
  0
ENDTAB
  0
TABLE
  2
LAYER
  5
2
100
AcDbSymbolTable
 70
2
  0
LAYER
  5
50
100
AcDbSymbolTableRecord
100
AcDbLayerTableRecord
  2
0
 70
0
  6
CONTINUOUS
  0
LAYER
  5
51
100
AcDbSymbolTableRecord
100
AcDbLayerTableRecord
  2
Layer_1
 70
0
  6
CONTINUOUS
  0
ENDTAB
  0
TABLE
  2
STYLE
  5
3
330
0
100
AcDbSymbolTable
 70
     1
  0
STYLE
  5
11
330
3
100
AcDbSymbolTableRecord
100
AcDbTextStyleTableRecord
  2
STANDARD
 70
     0
 40
0.0
 41
1.0
 50
0.0
 71
     0
 42
2.5
  3
txt
  4

  0
ENDTAB
  0
TABLE
  2
VIEW
  5
6
330
0
100
AcDbSymbolTable
 70
     0
  0
ENDTAB
  0
TABLE
  2
UCS
  5
7
330
0
100
AcDbSymbolTable
 70
     0
  0
ENDTAB
  0
TABLE
  2
APPID
  5
9
330
0
100
AcDbSymbolTable
 70
     2
  0
APPID
  5
12
330
9
100
AcDbSymbolTableRecord
100
AcDbRegAppTableRecord
  2
ACAD
 70
     0
  0
ENDTAB
  0
TABLE
  2
DIMSTYLE
  5
A
330
0
100
AcDbSymbolTable
 70
     1
  0
DIMSTYLE
105
27
330
A
100
AcDbSymbolTableRecord
100
AcDbDimStyleTableRecord
  2
ISO-25
 70
     0
  3

  4

  5

  6

  7

 40
1.0
 41
2.5
 42
0.625
 43
3.75
 44
1.25
 45
0.0
 46
0.0
 47
0.0
 48
0.0
140
2.5
141
2.5
142
0.0
143
0.03937007874016
144
1.0
145
0.0
146
1.0
147
0.625
 71
     0
 72
     0
 73
     0
 74
     0
 75
     0
 76
     0
 77
     1
 78
     8
170
     0
171
     3
172
     1
173
     0
174
     0
175
     0
176
     0
177
     0
178
     0
270
     2
271
     2
272
     2
273
     2
274
     3
340
11
275
     0
280
     0
281
     0
282
     0
283
     0
284
     8
285
     0
286
     0
287
     3
288
     0
  0
ENDTAB
  0
TABLE
  2
BLOCK_RECORD
  5
1
330
0
100
AcDbSymbolTable
 70
     1
  0
BLOCK_RECORD
  5
1F
330
1
100
AcDbSymbolTableRecord
100
AcDbBlockTableRecord
  2
*MODEL_SPACE
  0
BLOCK_RECORD
  5
1B
330
1
100
AcDbSymbolTableRecord
100
AcDbBlockTableRecord
  2
*PAPER_SPACE
  0
ENDTAB
  0
ENDSEC
  0
SECTION
  2
BLOCKS
  0
BLOCK
  5
20
330
1F
100
AcDbEntity
  8
0
100
AcDbBlockBegin
  2
*MODEL_SPACE
 70
     0
 10
0.0
 20
0.0
 30
0.0
  3
*MODEL_SPACE
  1

  0
ENDBLK
  5
21
330
1F
100
AcDbEntity
  8
0
100
AcDbBlockEnd
  0
BLOCK
  5
1C
330
1B
100
AcDbEntity
 67
     1
  8
0
100
AcDbBlockBegin
  2
*PAPER_SPACE
  1

  0
ENDBLK
  5
1D
330
1B
100
AcDbEntity
 67
     1
  8
0
100
AcDbBlockEnd
  0
ENDSEC
  0
SECTION
  2
ENTITIES
  0
LWPOLYLINE
  5
100
100
AcDbEntity
  8
Layer_1
 62
7
100
AcDbPolyline
 90
4
 70
1
 10
-28.571452
 20
258.214106
 30
0.0
 10
279.285934
 20
258.214106
 30
0.0
 10
279.285934
 20
-7.857556
 30
0.0
 10
-28.571452
 20
-7.857556
 30
0.0
  0
SPLINE
  5
101
100
AcDbEntity
  8
Layer_1
 62
7
100
AcDbSpline
 70
8
 71
3
 72
8
 73
4
 74
0
 40
0
 40
0
 40
0
 40
0
 40
1
 40
1
 40
1
 40
1
 10
22.127505
 20
168.173557
 30
0.0
 10
24.624035
 20
168.173557
 30
0.0
 10
26.500085
 20
167.866965
 30
0.0
 10
27.755654
 20
167.253782
 30
0.0
  0
SPLINE
  5
102
100
AcDbEntity
  8
Layer_1
 62
7
100
AcDbSpline
 70
8
 71
3
 72
8
 73
4
 74
0
 40
0
 40
0
 40
0
 40
0
 40
1
 40
1
 40
1
 40
1
 10
27.755654
 20
167.253782
 30
0.0
 10
29.011217
 20
166.640599
 30
0.0
 10
30.047790
 20
165.764624
 30
0.0
 10
30.865372
 20
164.625857
 30
0.0
  0
SPLINE
  5
103
100
AcDbEntity
  8
Layer_1
 62
7
100
AcDbSpline
 70
8
 71
3
 72
8
 73
4
 74
0
 40
0
 40
0
 40
0
 40
0
 40
1
 40
1
 40
1
 40
1
 10
30.865372
 20
164.625857
 30
0.0
 10
31.682949
 20
163.487084
 30
0.0
 10
32.091738
 20
162.100121
 30
0.0
 10
32.091738
 20
160.464966
 30
0.0
  0
SPLINE
  5
104
100
AcDbEntity
  8
Layer_1
 62
7
100
AcDbSpline
 70
8
 71
3
 72
8
 73
4
 74
0
 40
0
 40
0
 40
0
 40
0
 40
1
 40
1
 40
1
 40
1
 10
32.091738
 20
160.464966
 30
0.0
 10
32.091738
 20
157.150853
 30
0.0
 10
30.295986
 20
154.939012
 30
0.0
 10
26.704482
 20
153.829442
 30
0.0
  0
SPLINE
  5
105
100
AcDbEntity
  8
Layer_1
 62
7
100
AcDbSpline
 70
8
 71
3
 72
8
 73
4
 74
0
 40
0
 40
0
 40
0
 40
0
 40
1
 40
1
 40
1
 40
1
 10
26.704482
 20
153.829442
 30
0.0
 10
28.777628
 20
153.362253
 30
0.0
 10
30.332487
 20
152.435178
 30
0.0
 10
31.369060
 20
151.048217
 30
0.0
  0
SPLINE
  5
106
100
AcDbEntity
  8
Layer_1
 62
7
100
AcDbSpline
 70
8
 71
3
 72
8
 73
4
 74
0
 40
0
 40
0
 40
0
 40
0
 40
1
 40
1
 40
1
 40
1
 10
31.369060
 20
151.048217
 30
0.0
 10
32.405628
 20
149.661251
 30
0.0
 10
32.923911
 20
148.150191
 30
0.0
 10
32.923911
 20
146.515036
 30
0.0
  0
SPLINE
  5
107
100
AcDbEntity
  8
Layer_1
 62
7
100
AcDbSpline
 70
8
 71
3
 72
8
 73
4
 74
0
 40
0
 40
0
 40
0
 40
0
 40
1
 40
1
 40
1
 40
1
 10
32.923911
 20
146.515036
 30
0.0
 10
32.923911
 20
144.281295
 30
0.0
 10
32.077134
 20
142.346848
 30
0.0
 10
30.383579
 20
140.711693
 30
0.0
  0
SPLINE
  5
108
100
AcDbEntity
  8
Layer_1
 62
7
100
AcDbSpline
 70
8
 71
3
 72
8
 73
4
 74
0
 40
0
 40
0
 40
0
 40
0
 40
1
 40
1
 40
1
 40
1
 10
30.383579
 20
140.711693
 30
0.0
 10
28.690024
 20
139.091135
 30
0.0
 10
25.937999
 20
138.280856
 30
0.0
 10
22.127505
 20
138.280856
 30
0.0
  0
LWPOLYLINE
  5
109
100
AcDbEntity
  8
Layer_1
 62
7
100
AcDbPolyline
 90
2
 70
0
 10
8.199473
 20
168.173557
 30
0.0
 10
22.127505
 20
168.173557
 30
0.0
  0
LWPOLYLINE
  5
10a
100
AcDbEntity
  8
Layer_1
 62
7
100
AcDbPolyline
 90
3
 70
0
 10
22.127505
 20
138.280856
 30
0.0
 10
8.199473
 20
138.280856
 30
0.0
 10
8.199473
 20
168.173557
 30
0.0
  0
SPLINE
  5
10b
100
AcDbEntity
  8
Layer_1
 62
7
100
AcDbSpline
 70
8
 71
3
 72
8
 73
4
 74
0
 40
0
 40
0
 40
0
 40
0
 40
1
 40
1
 40
1
 40
1
 10
20.485044
 20
156.347872
 30
0.0
 10
22.426793
 20
156.347872
 30
0.0
 10
23.645860
 20
156.727463
 30
0.0
 10
24.142247
 20
157.486645
 30
0.0
  0
SPLINE
  5
10c
100
AcDbEntity
  8
Layer_1
 62
7
100
AcDbSpline
 70
8
 71
3
 72
8
 73
4
 74
0
 40
0
 40
0
 40
0
 40
0
 40
1
 40
1
 40
1
 40
1
 10
24.142247
 20
157.486645
 30
0.0
 10
24.653236
 20
158.260423
 30
0.0
 10
24.908730
 20
158.997703
 30
0.0
 10
24.908730
 20
159.698484
 30
0.0
  0
SPLINE
  5
10d
100
AcDbEntity
  8
Layer_1
 62
7
100
AcDbSpline
 70
8
 71
3
 72
8
 73
4
 74
0
 40
0
 40
0
 40
0
 40
0
 40
1
 40
1
 40
1
 40
1
 10
24.908730
 20
159.698484
 30
0.0
 10
24.908730
 20
160.457665
 30
0.0
 10
24.697035
 20
161.107349
 30
0.0
 10
24.273645
 20
161.647535
 30
0.0
  0
SPLINE
  5
10e
100
AcDbEntity
  8
Layer_1
 62
7
100
AcDbSpline
 70
8
 71
3
 72
8
 73
4
 74
0
 40
0
 40
0
 40
0
 40
0
 40
1
 40
1
 40
1
 40
1
 10
24.273645
 20
161.647535
 30
0.0
 10
23.864856
 20
162.202318
 30
0.0
 10
23.412268
 20
162.545408
 30
0.0
 10
22.915881
 20
162.676805
 30
0.0
  0
SPLINE
  5
10f
100
AcDbEntity
  8
Layer_1
 62
7
100
AcDbSpline
 70
8
 71
3
 72
8
 73
4
 74
0
 40
0
 40
0
 40
0
 40
0
 40
1
 40
1
 40
1
 40
1
 10
22.915881
 20
162.676805
 30
0.0
 10
22.419495
 20
162.822799
 30
0.0
 10
21.441320
 20
162.895796
 30
0.0
 10
19.981357
 20
162.895796
 30
0.0
  0
LWPOLYLINE
  5
110
100
AcDbEntity
  8
Layer_1
 62
7
100
AcDbPolyline
 90
3
 70
0
 10
15.185389
 20
162.895796
 30
0.0
 10
15.185389
 20
156.347872
 30
0.0
 10
20.485044
 20
156.347872
 30
0.0
  0
LWPOLYLINE
  5
111
100
AcDbEntity
  8
Layer_1
 62
7
100
AcDbPolyline
 90
2
 70
0
 10
19.981357
 20
162.895796
 30
0.0
 10
15.185389
 20
162.895796
 30
0.0
  0
SPLINE
  5
112
100
AcDbEntity
  8
Layer_1
 62
7
100
AcDbSpline
 70
8
 71
3
 72
8
 73
4
 74
0
 40
0
 40
0
 40
0
 40
0
 40
1
 40
1
 40
1
 40
1
 10
20.572645
 20
143.821404
 30
0.0
 10
22.412194
 20
143.821404
 30
0.0
 10
23.711559
 20
144.142597
 30
0.0
 10
24.470741
 20
144.784983
 30
0.0
  0
SPLINE
  5
113
100
AcDbEntity
  8
Layer_1
 62
7
100
AcDbSpline
 70
8
 71
3
 72
8
 73
4
 74
0
 40
0
 40
0
 40
0
 40
0
 40
1
 40
1
 40
1
 40
1
 10
24.470741
 20
144.784983
 30
0.0
 10
25.229923
 20
145.427363
 30
0.0
 10
25.609513
 20
146.325238
 30
0.0
 10
25.609513
 20
147.478607
 30
0.0
  0
SPLINE
  5
114
100
AcDbEntity
  8
Layer_1
 62
7
100
AcDbSpline
 70
8
 71
3
 72
8
 73
4
 74
0
 40
0
 40
0
 40
0
 40
0
 40
1
 40
1
 40
1
 40
1
 10
25.609513
 20
147.478607
 30
0.0
 10
25.609513
 20
148.442183
 30
0.0
 10
25.244521
 20
149.274362
 30
0.0
 10
24.514537
 20
149.975143
 30
0.0
  0
SPLINE
  5
115
100
AcDbEntity
  8
Layer_1
 62
7
100
AcDbSpline
 70
8
 71
3
 72
8
 73
4
 74
0
 40
0
 40
0
 40
0
 40
0
 40
1
 40
1
 40
1
 40
1
 10
24.514537
 20
149.975143
 30
0.0
 10
23.784558
 20
150.675924
 30
0.0
 10
22.572792
 20
151.026315
 30
0.0
 10
20.879237
 20
151.026315
 30
0.0
  0
LWPOLYLINE
  5
116
100
AcDbEntity
  8
Layer_1
 62
7
100
AcDbPolyline
 90
3
 70
0
 10
15.185389
 20
151.026315
 30
0.0
 10
15.185389
 20
143.821404
 30
0.0
 10
20.572645
 20
143.821404
 30
0.0
  0
LWPOLYLINE
  5
117
100
AcDbEntity
  8
Layer_1
 62
7
100
AcDbPolyline
 90
2
 70
0
 10
20.879237
 20
151.026315
 30
0.0
 10
15.185389
 20
151.026315
 30
0.0
  0
LWPOLYLINE
  5
118
100
AcDbEntity
  8
Layer_1
 62
7
100
AcDbPolyline
 90
9
 70
1
 10
58.611933
 20
168.173557
 30
0.0
 10
49.217078
 20
150.873023
 30
0.0
 10
49.217078
 20
138.280856
 30
0.0
 10
42.209263
 20
138.280856
 30
0.0
 10
42.209263
 20
150.873023
 30
0.0
 10
32.814416
 20
168.173557
 30
0.0
 10
40.939101
 20
168.173557
 30
0.0
 10
46.654851
 20
156.829658
 30
0.0
 10
52.326796
 20
168.173557
 30
0.0
  0
LWPOLYLINE
  5
119
100
AcDbEntity
  8
Layer_1
 62
7
100
AcDbPolyline
 90
8
 70
1
 10
81.453022
 20
168.173557
 30
0.0
 10
81.453022
 20
162.260718
 30
0.0
 10
74.051023
 20
162.260718
 30
0.0
 10
74.051023
 20
138.280856
 30
0.0
 10
66.955608
 20
138.280856
 30
0.0
 10
66.955608
 20
162.260718
 30
0.0
 10
59.509805
 20
162.260718
 30
0.0
 10
59.509805
 20
168.173557
 30
0.0
  0
LWPOLYLINE
  5
11a
100
AcDbEntity
  8
Layer_1
 62
7
100
AcDbPolyline
 90
12
 70
1
 10
105.805174
 20
162.479709
 30
0.0
 10
91.548653
 20
162.479709
 30
0.0
 10
91.548653
 20
156.347872
 30
0.0
 10
102.761154
 20
156.347872
 30
0.0
 10
102.761154
 20
150.719723
 30
0.0
 10
91.548653
 20
150.719723
 30
0.0
 10
91.548653
 20
144.193694
 30
0.0
 10
105.805174
 20
144.193694
 30
0.0
 10
105.805174
 20
138.280856
 30
0.0
 10
84.431343
 20
138.280856
 30
0.0
 10
84.431343
 20
168.173557
 30
0.0
 10
105.805174
 20
168.173557
 30
0.0
  0
SPLINE
  5
11b
100
AcDbEntity
  8
Layer_1
 62
7
100
AcDbSpline
 70
8
 71
3
 72
8
 73
4
 74
0
 40
0
 40
0
 40
0
 40
0
 40
1
 40
1
 40
1
 40
1
 10
126.784821
 20
156.588765
 30
0.0
 10
126.682621
 20
160.808053
 30
0.0
 10
125.040164
 20
162.917698
 30
0.0
 10
121.857448
 20
162.917698
 30
0.0
  0
SPLINE
  5
11c
100
AcDbEntity
  8
Layer_1
 62
7
100
AcDbSpline
 70
8
 71
3
 72
8
 73
4
 74
0
 40
0
 40
0
 40
0
 40
0
 40
1
 40
1
 40
1
 40
1
 10
121.857448
 20
162.917698
 30
0.0
 10
118.207548
 20
162.917698
 30
0.0
 10
116.382599
 20
159.669283
 30
0.0
 10
116.382599
 20
153.172455
 30
0.0
  0
SPLINE
  5
11d
100
AcDbEntity
  8
Layer_1
 62
7
100
AcDbSpline
 70
8
 71
3
 72
8
 73
4
 74
0
 40
0
 40
0
 40
0
 40
0
 40
1
 40
1
 40
1
 40
1
 10
116.382599
 20
153.172455
 30
0.0
 10
116.382599
 20
149.420356
 30
0.0
 10
116.878983
 20
146.872725
 30
0.0
 10
117.871751
 20
145.529563
 30
0.0
  0
SPLINE
  5
11e
100
AcDbEntity
  8
Layer_1
 62
7
100
AcDbSpline
 70
8
 71
3
 72
8
 73
4
 74
0
 40
0
 40
0
 40
0
 40
0
 40
1
 40
1
 40
1
 40
1
 10
117.871751
 20
145.529563
 30
0.0
 10
118.864525
 20
144.200998
 30
0.0
 10
120.251489
 20
143.536715
 30
0.0
 10
122.032642
 20
143.536715
 30
0.0
  0
SPLINE
  5
11f
100
AcDbEntity
  8
Layer_1
 62
7
100
AcDbSpline
 70
8
 71
3
 72
8
 73
4
 74
0
 40
0
 40
0
 40
0
 40
0
 40
1
 40
1
 40
1
 40
1
 10
122.032642
 20
143.536715
 30
0.0
 10
124.923365
 20
143.536715
 30
0.0
 10
126.689919
 20
145.420065
 30
0.0
 10
127.332305
 20
149.186766
 30
0.0
  0
LWPOLYLINE
  5
120
100
AcDbEntity
  8
Layer_1
 62
7
100
AcDbPolyline
 90
2
 70
0
 10
134.121121
 20
157.048656
 30
0.0
 10
126.784821
 20
156.588765
 30
0.0
  0
SPLINE
  5
121
100
AcDbEntity
  8
Layer_1
 62
7
100
AcDbSpline
 70
8
 71
3
 72
8
 73
4
 74
0
 40
0
 40
0
 40
0
 40
0
 40
1
 40
1
 40
1
 40
1
 10
134.121121
 20
148.770672
 30
0.0
 10
133.683135
 20
145.193769
 30
0.0
 10
132.347271
 20
142.470942
 30
0.0
 10
130.113530
 20
140.602190
 30
0.0
  0
SPLINE
  5
122
100
AcDbEntity
  8
Layer_1
 62
7
100
AcDbSpline
 70
8
 71
3
 72
8
 73
4
 74
0
 40
0
 40
0
 40
0
 40
0
 40
1
 40
1
 40
1
 40
1
 10
130.113530
 20
140.602190
 30
0.0
 10
127.894391
 20
138.748040
 30
0.0
 10
125.171564
 20
137.820965
 30
0.0
 10
121.945049
 20
137.820965
 30
0.0
  0
SPLINE
  5
123
100
AcDbEntity
  8
Layer_1
 62
7
100
AcDbSpline
 70
8
 71
3
 72
8
 73
4
 74
0
 40
0
 40
0
 40
0
 40
0
 40
1
 40
1
 40
1
 40
1
 10
121.945049
 20
137.820965
 30
0.0
 10
117.988555
 20
137.820965
 30
0.0
 10
114.769341
 20
139.186029
 30
0.0
 10
112.287407
 20
141.916157
 30
0.0
  0
SPLINE
  5
124
100
AcDbEntity
  8
Layer_1
 62
7
100
AcDbSpline
 70
8
 71
3
 72
8
 73
4
 74
0
 40
0
 40
0
 40
0
 40
0
 40
1
 40
1
 40
1
 40
1
 10
112.287407
 20
141.916157
 30
0.0
 10
109.820069
 20
144.646285
 30
0.0
 10
108.586400
 20
148.420284
 30
0.0
 10
108.586400
 20
153.238154
 30
0.0
  0
SPLINE
  5
125
100
AcDbEntity
  8
Layer_1
 62
7
100
AcDbSpline
 70
8
 71
3
 72
8
 73
4
 74
0
 40
0
 40
0
 40
0
 40
0
 40
1
 40
1
 40
1
 40
1
 10
108.586400
 20
153.238154
 30
0.0
 10
108.586400
 20
157.749435
 30
0.0
 10
109.783568
 20
161.443139
 30
0.0
 10
112.177904
 20
164.319265
 30
0.0
  0
SPLINE
  5
126
100
AcDbEntity
  8
Layer_1
 62
7
100
AcDbSpline
 70
8
 71
3
 72
8
 73
4
 74
0
 40
0
 40
0
 40
0
 40
0
 40
1
 40
1
 40
1
 40
1
 10
112.177904
 20
164.319265
 30
0.0
 10
114.572240
 20
167.195387
 30
0.0
 10
117.842554
 20
168.633448
 30
0.0
 10
121.988845
 20
168.633448
 30
0.0
  0
SPLINE
  5
127
100
AcDbEntity
  8
Layer_1
 62
7
100
AcDbSpline
 70
8
 71
3
 72
8
 73
4
 74
0
 40
0
 40
0
 40
0
 40
0
 40
1
 40
1
 40
1
 40
1
 10
121.988845
 20
168.633448
 30
0.0
 10
129.171854
 20
168.633448
 30
0.0
 10
133.215946
 20
164.771850
 30
0.0
 10
134.121121
 20
157.048656
 30
0.0
  0
LWPOLYLINE
  5
128
100
AcDbEntity
  8
Layer_1
 62
7
100
AcDbPolyline
 90
2
 70
0
 10
127.332305
 20
149.186766
 30
0.0
 10
134.121121
 20
148.770672
 30
0.0
  0
LWPOLYLINE
  5
129
100
AcDbEntity
  8
Layer_1
 62
7
100
AcDbPolyline
 90
1
 70
1
 10
134.121121
 20
157.048656
 30
0.0
  0
LWPOLYLINE
  5
12a
100
AcDbEntity
  8
Layer_1
 62
7
100
AcDbPolyline
 90
12
 70
1
 10
161.254506
 20
168.173557
 30
0.0
 10
161.254506
 20
138.280856
 30
0.0
 10
154.378089
 20
138.280856
 30
0.0
 10
154.378089
 20
150.610228
 30
0.0
 10
145.027039
 20
150.610228
 30
0.0
 10
145.027039
 20
138.280856
 30
0.0
 10
138.150622
 20
138.280856
 30
0.0
 10
138.150622
 20
168.173557
 30
0.0
 10
145.027039
 20
168.173557
 30
0.0
 10
145.027039
 20
156.523066
 30
0.0
 10
154.378089
 20
156.523066
 30
0.0
 10
154.378089
 20
168.173557
 30
0.0
  0
LWPOLYLINE
  5
12b
100
AcDbEntity
  8
Layer_1
 62
7
100
AcDbPolyline
 90
6
 70
1
 10
174.328451
 20
144.193694
 30
0.0
 10
186.219834
 20
144.193694
 30
0.0
 10
186.219834
 20
138.280856
 30
0.0
 10
167.233043
 20
138.280856
 30
0.0
 10
167.233043
 20
168.173557
 30
0.0
 10
174.328451
 20
168.173557
 30
0.0
  0
LWPOLYLINE
  5
12c
100
AcDbEntity
  8
Layer_1
 62
7
100
AcDbPolyline
 90
8
 70
1
 10
204.505848
 20
168.173557
 30
0.0
 10
213.856899
 20
138.280856
 30
0.0
 10
206.323503
 20
138.280856
 30
0.0
 10
204.505848
 20
144.434587
 30
0.0
 10
194.826304
 20
144.434587
 30
0.0
 10
192.942959
 20
138.280856
 30
0.0
 10
186.811122
 20
138.280856
 30
0.0
 10
196.381163
 20
168.173557
 30
0.0
  0
LWPOLYLINE
  5
12d
100
AcDbEntity
  8
Layer_1
 62
7
100
AcDbPolyline
 90
3
 70
1
 10
196.512561
 20
149.953241
 30
0.0
 10
202.863396
 20
149.953241
 30
0.0
 10
199.687978
 20
160.443064
 30
0.0
  0
SPLINE
  5
12e
100
AcDbEntity
  8
Layer_1
 62
7
100
AcDbSpline
 70
8
 71
3
 72
8
 73
4
 74
0
 40
0
 40
0
 40
0
 40
0
 40
1
 40
1
 40
1
 40
1
 10
231.004148
 20
168.173557
 30
0.0
 10
233.500679
 20
168.173557
 30
0.0
 10
235.376729
 20
167.866965
 30
0.0
 10
236.632297
 20
167.253782
 30
0.0
  0
SPLINE
  5
12f
100
AcDbEntity
  8
Layer_1
 62
7
100
AcDbSpline
 70
8
 71
3
 72
8
 73
4
 74
0
 40
0
 40
0
 40
0
 40
0
 40
1
 40
1
 40
1
 40
1
 10
236.632297
 20
167.253782
 30
0.0
 10
237.887861
 20
166.640599
 30
0.0
 10
238.924434
 20
165.764624
 30
0.0
 10
239.742016
 20
164.625857
 30
0.0
  0
SPLINE
  5
130
100
AcDbEntity
  8
Layer_1
 62
7
100
AcDbSpline
 70
8
 71
3
 72
8
 73
4
 74
0
 40
0
 40
0
 40
0
 40
0
 40
1
 40
1
 40
1
 40
1
 10
239.742016
 20
164.625857
 30
0.0
 10
240.559593
 20
163.487084
 30
0.0
 10
240.968382
 20
162.100121
 30
0.0
 10
240.968382
 20
160.464966
 30
0.0
  0
SPLINE
  5
131
100
AcDbEntity
  8
Layer_1
 62
7
100
AcDbSpline
 70
8
 71
3
 72
8
 73
4
 74
0
 40
0
 40
0
 40
0
 40
0
 40
1
 40
1
 40
1
 40
1
 10
240.968382
 20
160.464966
 30
0.0
 10
240.968382
 20
157.150853
 30
0.0
 10
239.172630
 20
154.939012
 30
0.0
 10
235.581126
 20
153.829442
 30
0.0
  0
SPLINE
  5
132
100
AcDbEntity
  8
Layer_1
 62
7
100
AcDbSpline
 70
8
 71
3
 72
8
 73
4
 74
0
 40
0
 40
0
 40
0
 40
0
 40
1
 40
1
 40
1
 40
1
 10
235.581126
 20
153.829442
 30
0.0
 10
237.654271
 20
153.362253
 30
0.0
 10
239.209128
 20
152.435178
 30
0.0
 10
240.245696
 20
151.048217
 30
0.0
  0
SPLINE
  5
133
100
AcDbEntity
  8
Layer_1
 62
7
100
AcDbSpline
 70
8
 71
3
 72
8
 73
4
 74
0
 40
0
 40
0
 40
0
 40
0
 40
1
 40
1
 40
1
 40
1
 10
240.245696
 20
151.048217
 30
0.0
 10
241.282269
 20
149.661251
 30
0.0
 10
241.800555
 20
148.150191
 30
0.0
 10
241.800555
 20
146.515036
 30
0.0
  0
SPLINE
  5
134
100
AcDbEntity
  8
Layer_1
 62
7
100
AcDbSpline
 70
8
 71
3
 72
8
 73
4
 74
0
 40
0
 40
0
 40
0
 40
0
 40
1
 40
1
 40
1
 40
1
 10
241.800555
 20
146.515036
 30
0.0
 10
241.800555
 20
144.281295
 30
0.0
 10
240.953778
 20
142.346848
 30
0.0
 10
239.260223
 20
140.711693
 30
0.0
  0
SPLINE
  5
135
100
AcDbEntity
  8
Layer_1
 62
7
100
AcDbSpline
 70
8
 71
3
 72
8
 73
4
 74
0
 40
0
 40
0
 40
0
 40
0
 40
1
 40
1
 40
1
 40
1
 10
239.260223
 20
140.711693
 30
0.0
 10
237.566668
 20
139.091135
 30
0.0
 10
234.814643
 20
138.280856
 30
0.0
 10
231.004148
 20
138.280856
 30
0.0
  0
LWPOLYLINE
  5
136
100
AcDbEntity
  8
Layer_1
 62
7
100
AcDbPolyline
 90
2
 70
0
 10
217.076113
 20
168.173557
 30
0.0
 10
231.004148
 20
168.173557
 30
0.0
  0
LWPOLYLINE
  5
137
100
AcDbEntity
  8
Layer_1
 62
7
100
AcDbPolyline
 90
3
 70
0
 10
231.004148
 20
138.280856
 30
0.0
 10
217.076113
 20
138.280856
 30
0.0
 10
217.076113
 20
168.173557
 30
0.0
  0
SPLINE
  5
138
100
AcDbEntity
  8
Layer_1
 62
7
100
AcDbSpline
 70
8
 71
3
 72
8
 73
4
 74
0
 40
0
 40
0
 40
0
 40
0
 40
1
 40
1
 40
1
 40
1
 10
229.361688
 20
156.347872
 30
0.0
 10
231.303437
 20
156.347872
 30
0.0
 10
232.522504
 20
156.727463
 30
0.0
 10
233.018891
 20
157.486645
 30
0.0
  0
SPLINE
  5
139
100
AcDbEntity
  8
Layer_1
 62
7
100
AcDbSpline
 70
8
 71
3
 72
8
 73
4
 74
0
 40
0
 40
0
 40
0
 40
0
 40
1
 40
1
 40
1
 40
1
 10
233.018891
 20
157.486645
 30
0.0
 10
233.529879
 20
158.260423
 30
0.0
 10
233.785374
 20
158.997703
 30
0.0
 10
233.785374
 20
159.698484
 30
0.0
  0
SPLINE
  5
13a
100
AcDbEntity
  8
Layer_1
 62
7
100
AcDbSpline
 70
8
 71
3
 72
8
 73
4
 74
0
 40
0
 40
0
 40
0
 40
0
 40
1
 40
1
 40
1
 40
1
 10
233.785374
 20
159.698484
 30
0.0
 10
233.785374
 20
160.457665
 30
0.0
 10
233.573679
 20
161.107349
 30
0.0
 10
233.150289
 20
161.647535
 30
0.0
  0
SPLINE
  5
13b
100
AcDbEntity
  8
Layer_1
 62
7
100
AcDbSpline
 70
8
 71
3
 72
8
 73
4
 74
0
 40
0
 40
0
 40
0
 40
0
 40
1
 40
1
 40
1
 40
1
 10
233.150289
 20
161.647535
 30
0.0
 10
232.741500
 20
162.202318
 30
0.0
 10
232.288912
 20
162.545408
 30
0.0
 10
231.792525
 20
162.676805
 30
0.0
  0
SPLINE
  5
13c
100
AcDbEntity
  8
Layer_1
 62
7
100
AcDbSpline
 70
8
 71
3
 72
8
 73
4
 74
0
 40
0
 40
0
 40
0
 40
0
 40
1
 40
1
 40
1
 40
1
 10
231.792525
 20
162.676805
 30
0.0
 10
231.296138
 20
162.822799
 30
0.0
 10
230.317964
 20
162.895796
 30
0.0
 10
228.858001
 20
162.895796
 30
0.0
  0
LWPOLYLINE
  5
13d
100
AcDbEntity
  8
Layer_1
 62
7
100
AcDbPolyline
 90
3
 70
0
 10
224.062033
 20
162.895796
 30
0.0
 10
224.062033
 20
156.347872
 30
0.0
 10
229.361688
 20
156.347872
 30
0.0
  0
LWPOLYLINE
  5
13e
100
AcDbEntity
  8
Layer_1
 62
7
100
AcDbPolyline
 90
2
 70
0
 10
228.858001
 20
162.895796
 30
0.0
 10
224.062033
 20
162.895796
 30
0.0
  0
SPLINE
  5
13f
100
AcDbEntity
  8
Layer_1
 62
7
100
AcDbSpline
 70
8
 71
3
 72
8
 73
4
 74
0
 40
0
 40
0
 40
0
 40
0
 40
1
 40
1
 40
1
 40
1
 10
229.449289
 20
143.821404
 30
0.0
 10
231.288838
 20
143.821404
 30
0.0
 10
232.588203
 20
144.142597
 30
0.0
 10
233.347385
 20
144.784983
 30
0.0
  0
SPLINE
  5
140
100
AcDbEntity
  8
Layer_1
 62
7
100
AcDbSpline
 70
8
 71
3
 72
8
 73
4
 74
0
 40
0
 40
0
 40
0
 40
0
 40
1
 40
1
 40
1
 40
1
 10
233.347385
 20
144.784983
 30
0.0
 10
234.106561
 20
145.427363
 30
0.0
 10
234.486150
 20
146.325238
 30
0.0
 10
234.486150
 20
147.478607
 30
0.0
  0
SPLINE
  5
141
100
AcDbEntity
  8
Layer_1
 62
7
100
AcDbSpline
 70
8
 71
3
 72
8
 73
4
 74
0
 40
0
 40
0
 40
0
 40
0
 40
1
 40
1
 40
1
 40
1
 10
234.486150
 20
147.478607
 30
0.0
 10
234.486150
 20
148.442183
 30
0.0
 10
234.121160
 20
149.274362
 30
0.0
 10
233.391181
 20
149.975143
 30
0.0
  0
SPLINE
  5
142
100
AcDbEntity
  8
Layer_1
 62
7
100
AcDbSpline
 70
8
 71
3
 72
8
 73
4
 74
0
 40
0
 40
0
 40
0
 40
0
 40
1
 40
1
 40
1
 40
1
 10
233.391181
 20
149.975143
 30
0.0
 10
232.661202
 20
150.675924
 30
0.0
 10
231.449435
 20
151.026315
 30
0.0
 10
229.755881
 20
151.026315
 30
0.0
  0
LWPOLYLINE
  5
143
100
AcDbEntity
  8
Layer_1
 62
7
100
AcDbPolyline
 90
3
 70
0
 10
224.062033
 20
151.026315
 30
0.0
 10
224.062033
 20
143.821404
 30
0.0
 10
229.449289
 20
143.821404
 30
0.0
  0
LWPOLYLINE
  5
144
100
AcDbEntity
  8
Layer_1
 62
7
100
AcDbPolyline
 90
2
 70
0
 10
229.755881
 20
151.026315
 30
0.0
 10
224.062033
 20
151.026315
 30
0.0
  0
LWPOLYLINE
  5
145
100
AcDbEntity
  8
Layer_1
 62
7
100
AcDbPolyline
 90
4
 70
1
 10
10.453066
 20
122.927760
 30
0.0
 10
239.546908
 20
122.927760
 30
0.0
 10
239.546908
 20
83.596595
 30
0.0
 10
10.453066
 20
83.596595
 30
0.0
  0
SPLINE
  5
146
100
AcDbEntity
  8
Layer_1
 62
7
100
AcDbSpline
 70
8
 71
3
 72
8
 73
4
 74
0
 40
0
 40
0
 40
0
 40
0
 40
1
 40
1
 40
1
 40
1
 10
31.128167
 20
118.208524
 30
0.0
 10
33.551701
 20
118.208524
 30
0.0
 10
35.493449
 20
117.923832
 30
0.0
 10
36.953412
 20
117.354448
 30
0.0
  0
SPLINE
  5
147
100
AcDbEntity
  8
Layer_1
 62
7
100
AcDbSpline
 70
8
 71
3
 72
8
 73
4
 74
0
 40
0
 40
0
 40
0
 40
0
 40
1
 40
1
 40
1
 40
1
 10
36.953412
 20
117.354448
 30
0.0
 10
38.427971
 20
116.799661
 30
0.0
 10
39.647039
 20
115.770386
 30
0.0
 10
40.610615
 20
114.266624
 30
0.0
  0
SPLINE
  5
148
100
AcDbEntity
  8
Layer_1
 62
7
100
AcDbSpline
 70
8
 71
3
 72
8
 73
4
 74
0
 40
0
 40
0
 40
0
 40
0
 40
1
 40
1
 40
1
 40
1
 10
40.610615
 20
114.266624
 30
0.0
 10
41.574186
 20
112.762867
 30
0.0
 10
42.055972
 20
111.091212
 30
0.0
 10
42.055972
 20
109.251658
 30
0.0
  0
SPLINE
  5
149
100
AcDbEntity
  8
Layer_1
 62
7
100
AcDbSpline
 70
8
 71
3
 72
8
 73
4
 74
0
 40
0
 40
0
 40
0
 40
0
 40
1
 40
1
 40
1
 40
1
 10
42.055972
 20
109.251658
 30
0.0
 10
42.055972
 20
105.660154
 30
0.0
 10
40.325918
 20
103.083323
 30
0.0
 10
36.865811
 20
101.521165
 30
0.0
  0
LWPOLYLINE
  5
14a
100
AcDbEntity
  8
Layer_1
 62
7
100
AcDbPolyline
 90
5
 70
0
 10
25.040127
 20
100.163402
 30
0.0
 10
25.040127
 20
88.315816
 30
0.0
 10
17.988516
 20
88.315816
 30
0.0
 10
17.988516
 20
118.208524
 30
0.0
 10
31.128167
 20
118.208524
 30
0.0
  0
LWPOLYLINE
  5
14b
100
AcDbEntity
  8
Layer_1
 62
7
100
AcDbPolyline
 90
5
 70
0
 10
36.865811
 20
101.521165
 30
0.0
 10
42.384465
 20
88.315816
 30
0.0
 10
34.653973
 20
88.315816
 30
0.0
 10
30.055093
 20
100.163402
 30
0.0
 10
25.040127
 20
100.163402
 30
0.0
  0
SPLINE
  5
14c
100
AcDbEntity
  8
Layer_1
 62
7
100
AcDbSpline
 70
8
 71
3
 72
8
 73
4
 74
0
 40
0
 40
0
 40
0
 40
0
 40
1
 40
1
 40
1
 40
1
 10
29.332415
 20
105.265969
 30
0.0
 10
30.733977
 20
105.265969
 30
0.0
 10
31.748651
 20
105.360866
 30
0.0
 10
32.376435
 20
105.550658
 30
0.0
  0
SPLINE
  5
14d
100
AcDbEntity
  8
Layer_1
 62
7
100
AcDbSpline
 70
8
 71
3
 72
8
 73
4
 74
0
 40
0
 40
0
 40
0
 40
0
 40
1
 40
1
 40
1
 40
1
 10
32.376435
 20
105.550658
 30
0.0
 10
33.018816
 20
105.755053
 30
0.0
 10
33.588199
 20
106.193042
 30
0.0
 10
34.084586
 20
106.864625
 30
0.0
  0
SPLINE
  5
14e
100
AcDbEntity
  8
Layer_1
 62
7
100
AcDbSpline
 70
8
 71
3
 72
8
 73
4
 74
0
 40
0
 40
0
 40
0
 40
0
 40
1
 40
1
 40
1
 40
1
 10
34.084586
 20
106.864625
 30
0.0
 10
34.580973
 20
107.550805
 30
0.0
 10
34.829167
 20
108.331884
 30
0.0
 10
34.829167
 20
109.207861
 30
0.0
  0
SPLINE
  5
14f
100
AcDbEntity
  8
Layer_1
 62
7
100
AcDbSpline
 70
8
 71
3
 72
8
 73
4
 74
0
 40
0
 40
0
 40
0
 40
0
 40
1
 40
1
 40
1
 40
1
 10
34.829167
 20
109.207861
 30
0.0
 10
34.829167
 20
110.040040
 30
0.0
 10
34.580973
 20
110.784620
 30
0.0
 10
34.084586
 20
111.441602
 30
0.0
  0
SPLINE
  5
150
100
AcDbEntity
  8
Layer_1
 62
7
100
AcDbSpline
 70
8
 71
3
 72
8
 73
4
 74
0
 40
0
 40
0
 40
0
 40
0
 40
1
 40
1
 40
1
 40
1
 10
34.084586
 20
111.441602
 30
0.0
 10
33.588199
 20
112.098584
 30
0.0
 10
33.048013
 20
112.500075
 30
0.0
 10
32.464028
 20
112.646074
 30
0.0
  0
SPLINE
  5
151
100
AcDbEntity
  8
Layer_1
 62
7
100
AcDbSpline
 70
8
 71
3
 72
8
 73
4
 74
0
 40
0
 40
0
 40
0
 40
0
 40
1
 40
1
 40
1
 40
1
 10
32.464028
 20
112.646074
 30
0.0
 10
31.880043
 20
112.806669
 30
0.0
 10
30.785072
 20
112.886966
 30
0.0
 10
29.179115
 20
112.886966
 30
0.0
  0
LWPOLYLINE
  5
152
100
AcDbEntity
  8
Layer_1
 62
7
100
AcDbPolyline
 90
3
 70
0
 10
25.040127
 20
112.886966
 30
0.0
 10
25.040127
 20
105.265969
 30
0.0
 10
29.332415
 20
105.265969
 30
0.0
  0
LWPOLYLINE
  5
153
100
AcDbEntity
  8
Layer_1
 62
7
100
AcDbPolyline
 90
2
 70
0
 10
29.179115
 20
112.886966
 30
0.0
 10
25.040127
 20
112.886966
 30
0.0
  0
LWPOLYLINE
  5
154
100
AcDbEntity
  8
Layer_1
 62
7
100
AcDbPolyline
 90
12
 70
1
 10
68.817059
 20
112.514676
 30
0.0
 10
54.560537
 20
112.514676
 30
0.0
 10
54.560537
 20
106.382840
 30
0.0
 10
65.773039
 20
106.382840
 30
0.0
 10
65.773039
 20
100.754691
 30
0.0
 10
54.560537
 20
100.754691
 30
0.0
 10
54.560537
 20
94.228662
 30
0.0
 10
68.817059
 20
94.228662
 30
0.0
 10
68.817059
 20
88.315816
 30
0.0
 10
47.443228
 20
88.315816
 30
0.0
 10
47.443228
 20
118.208524
 30
0.0
 10
68.817059
 20
118.208524
 30
0.0
  0
SPLINE
  5
155
100
AcDbEntity
  8
Layer_1
 62
7
100
AcDbSpline
 70
8
 71
3
 72
8
 73
4
 74
0
 40
0
 40
0
 40
0
 40
0
 40
1
 40
1
 40
1
 40
1
 10
87.716256
 20
109.645850
 30
0.0
 10
86.913280
 20
112.010989
 30
0.0
 10
85.212427
 20
113.193558
 30
0.0
 10
82.613697
 20
113.193558
 30
0.0
  0
SPLINE
  5
156
100
AcDbEntity
  8
Layer_1
 62
7
100
AcDbSpline
 70
8
 71
3
 72
8
 73
4
 74
0
 40
0
 40
0
 40
0
 40
0
 40
1
 40
1
 40
1
 40
1
 10
82.613697
 20
113.193558
 30
0.0
 10
79.839770
 20
113.193558
 30
0.0
 10
78.452806
 20
112.295680
 30
0.0
 10
78.452806
 20
110.499926
 30
0.0
  0
SPLINE
  5
157
100
AcDbEntity
  8
Layer_1
 62
7
100
AcDbSpline
 70
8
 71
3
 72
8
 73
4
 74
0
 40
0
 40
0
 40
0
 40
0
 40
1
 40
1
 40
1
 40
1
 10
78.452806
 20
110.499926
 30
0.0
 10
78.452806
 20
109.784548
 30
0.0
 10
78.708298
 20
109.178666
 30
0.0
 10
79.219281
 20
108.682279
 30
0.0
  0
SPLINE
  5
158
100
AcDbEntity
  8
Layer_1
 62
7
100
AcDbSpline
 70
8
 71
3
 72
8
 73
4
 74
0
 40
0
 40
0
 40
0
 40
0
 40
1
 40
1
 40
1
 40
1
 10
79.219281
 20
108.682279
 30
0.0
 10
79.744871
 20
108.185892
 30
0.0
 10
80.920139
 20
107.755202
 30
0.0
 10
82.745087
 20
107.390207
 30
0.0
  0
SPLINE
  5
159
100
AcDbEntity
  8
Layer_1
 62
7
100
AcDbSpline
 70
8
 71
3
 72
8
 73
4
 74
0
 40
0
 40
0
 40
0
 40
0
 40
1
 40
1
 40
1
 40
1
 10
82.745087
 20
107.390207
 30
0.0
 10
85.796410
 20
106.777024
 30
0.0
 10
88.030151
 20
106.156541
 30
0.0
 10
89.446310
 20
105.528756
 30
0.0
  0
SPLINE
  5
15a
100
AcDbEntity
  8
Layer_1
 62
7
100
AcDbSpline
 70
8
 71
3
 72
8
 73
4
 74
0
 40
0
 40
0
 40
0
 40
0
 40
1
 40
1
 40
1
 40
1
 10
89.446310
 20
105.528756
 30
0.0
 10
90.862473
 20
104.900977
 30
0.0
 10
92.052343
 20
103.886306
 30
0.0
 10
93.015919
 20
102.484744
 30
0.0
  0
SPLINE
  5
15b
100
AcDbEntity
  8
Layer_1
 62
7
100
AcDbSpline
 70
8
 71
3
 72
8
 73
4
 74
0
 40
0
 40
0
 40
0
 40
0
 40
1
 40
1
 40
1
 40
1
 10
93.015919
 20
102.484744
 30
0.0
 10
93.994092
 20
101.097778
 30
0.0
 10
94.483178
 20
99.542919
 30
0.0
 10
94.483178
 20
97.820166
 30
0.0
  0
SPLINE
  5
15c
100
AcDbEntity
  8
Layer_1
 62
7
100
AcDbSpline
 70
8
 71
3
 72
8
 73
4
 74
0
 40
0
 40
0
 40
0
 40
0
 40
1
 40
1
 40
1
 40
1
 10
94.483178
 20
97.820166
 30
0.0
 10
94.483178
 20
95.119236
 30
0.0
 10
93.439307
 20
92.783298
 30
0.0
 10
91.351565
 20
90.812352
 30
0.0
  0
SPLINE
  5
15d
100
AcDbEntity
  8
Layer_1
 62
7
100
AcDbSpline
 70
8
 71
3
 72
8
 73
4
 74
0
 40
0
 40
0
 40
0
 40
0
 40
1
 40
1
 40
1
 40
1
 10
91.351565
 20
90.812352
 30
0.0
 10
89.278419
 20
88.841405
 30
0.0
 10
86.197900
 20
87.855932
 30
0.0
 10
82.110009
 20
87.855932
 30
0.0
  0
SPLINE
  5
15e
100
AcDbEntity
  8
Layer_1
 62
7
100
AcDbSpline
 70
8
 71
3
 72
8
 73
4
 74
0
 40
0
 40
0
 40
0
 40
0
 40
1
 40
1
 40
1
 40
1
 10
82.110009
 20
87.855932
 30
0.0
 10
79.044090
 20
87.855932
 30
0.0
 10
76.430758
 20
88.549413
 30
0.0
 10
74.270014
 20
89.936374
 30
0.0
  0
SPLINE
  5
15f
100
AcDbEntity
  8
Layer_1
 62
7
100
AcDbSpline
 70
8
 71
3
 72
8
 73
4
 74
0
 40
0
 40
0
 40
0
 40
0
 40
1
 40
1
 40
1
 40
1
 10
74.270014
 20
89.936374
 30
0.0
 10
72.123871
 20
91.337936
 30
0.0
 10
70.707710
 20
93.411082
 30
0.0
 10
70.021530
 20
96.155811
 30
0.0
  0
LWPOLYLINE
  5
160
100
AcDbEntity
  8
Layer_1
 62
7
100
AcDbPolyline
 90
2
 70
0
 10
93.672899
 20
111.638698
 30
0.0
 10
87.716256
 20
109.645850
 30
0.0
  0
SPLINE
  5
161
100
AcDbEntity
  8
Layer_1
 62
7
100
AcDbSpline
 70
8
 71
3
 72
8
 73
4
 74
0
 40
0
 40
0
 40
0
 40
0
 40
1
 40
1
 40
1
 40
1
 10
76.503755
 20
97.623070
 30
0.0
 10
77.233739
 20
94.834546
 30
0.0
 10
79.263085
 20
93.440285
 30
0.0
 10
82.591795
 20
93.440285
 30
0.0
  0
SPLINE
  5
162
100
AcDbEntity
  8
Layer_1
 62
7
100
AcDbSpline
 70
8
 71
3
 72
8
 73
4
 74
0
 40
0
 40
0
 40
0
 40
0
 40
1
 40
1
 40
1
 40
1
 10
82.591795
 20
93.440285
 30
0.0
 10
84.197751
 20
93.440285
 30
0.0
 10
85.394919
 20
93.746876
 30
0.0
 10
86.183299
 20
94.360059
 30
0.0
  0
SPLINE
  5
163
100
AcDbEntity
  8
Layer_1
 62
7
100
AcDbSpline
 70
8
 71
3
 72
8
 73
4
 74
0
 40
0
 40
0
 40
0
 40
0
 40
1
 40
1
 40
1
 40
1
 10
86.183299
 20
94.360059
 30
0.0
 10
86.971678
 20
94.987843
 30
0.0
 10
87.365868
 20
95.732424
 30
0.0
 10
87.365868
 20
96.593800
 30
0.0
  0
SPLINE
  5
164
100
AcDbEntity
  8
Layer_1
 62
7
100
AcDbSpline
 70
8
 71
3
 72
8
 73
4
 74
0
 40
0
 40
0
 40
0
 40
0
 40
1
 40
1
 40
1
 40
1
 10
87.365868
 20
96.593800
 30
0.0
 10
87.365868
 20
97.469778
 30
0.0
 10
87.008177
 20
98.148659
 30
0.0
 10
86.292794
 20
98.630445
 30
0.0
  0
SPLINE
  5
165
100
AcDbEntity
  8
Layer_1
 62
7
100
AcDbSpline
 70
8
 71
3
 72
8
 73
4
 74
0
 40
0
 40
0
 40
0
 40
0
 40
1
 40
1
 40
1
 40
1
 10
86.292794
 20
98.630445
 30
0.0
 10
85.577417
 20
99.112230
 30
0.0
 10
84.197754
 20
99.564818
 30
0.0
 10
82.153806
 20
99.988208
 30
0.0
  0
SPLINE
  5
166
100
AcDbEntity
  8
Layer_1
 62
7
100
AcDbSpline
 70
8
 71
3
 72
8
 73
4
 74
0
 40
0
 40
0
 40
0
 40
0
 40
1
 40
1
 40
1
 40
1
 10
82.153806
 20
99.988208
 30
0.0
 10
78.343306
 20
100.776588
 30
0.0
 10
75.627780
 20
101.849659
 30
0.0
 10
74.007227
 20
103.207422
 30
0.0
  0
SPLINE
  5
167
100
AcDbEntity
  8
Layer_1
 62
7
100
AcDbSpline
 70
8
 71
3
 72
8
 73
4
 74
0
 40
0
 40
0
 40
0
 40
0
 40
1
 40
1
 40
1
 40
1
 10
74.007227
 20
103.207422
 30
0.0
 10
72.386669
 20
104.579787
 30
0.0
 10
71.576390
 20
106.579933
 30
0.0
 10
71.576390
 20
109.207861
 30
0.0
  0
SPLINE
  5
168
100
AcDbEntity
  8
Layer_1
 62
7
100
AcDbSpline
 70
8
 71
3
 72
8
 73
4
 74
0
 40
0
 40
0
 40
0
 40
0
 40
1
 40
1
 40
1
 40
1
 10
71.576390
 20
109.207861
 30
0.0
 10
71.576390
 20
111.864992
 30
0.0
 10
72.539963
 20
114.106034
 30
0.0
 10
74.467110
 20
115.930986
 30
0.0
  0
SPLINE
  5
169
100
AcDbEntity
  8
Layer_1
 62
7
100
AcDbSpline
 70
8
 71
3
 72
8
 73
4
 74
0
 40
0
 40
0
 40
0
 40
0
 40
1
 40
1
 40
1
 40
1
 10
74.467110
 20
115.930986
 30
0.0
 10
76.408858
 20
117.755934
 30
0.0
 10
79.036789
 20
118.668407
 30
0.0
 10
82.350902
 20
118.668407
 30
0.0
  0
SPLINE
  5
16a
100
AcDbEntity
  8
Layer_1
 62
7
100
AcDbSpline
 70
8
 71
3
 72
8
 73
4
 74
0
 40
0
 40
0
 40
0
 40
0
 40
1
 40
1
 40
1
 40
1
 10
82.350902
 20
118.668407
 30
0.0
 10
88.219946
 20
118.668407
 30
0.0
 10
91.993945
 20
116.325171
 30
0.0
 10
93.672899
 20
111.638698
 30
0.0
  0
LWPOLYLINE
  5
16b
100
AcDbEntity
  8
Layer_1
 62
7
100
AcDbPolyline
 90
2
 70
0
 10
70.021530
 20
96.155811
 30
0.0
 10
76.503755
 20
97.623070
 30
0.0
  0
LWPOLYLINE
  5
16c
100
AcDbEntity
  8
Layer_1
 62
7
100
AcDbPolyline
 90
1
 70
1
 10
93.672899
 20
111.638698
 30
0.0
  0
LWPOLYLINE
  5
16d
100
AcDbEntity
  8
Layer_1
 62
7
100
AcDbPolyline
 90
12
 70
1
 10
120.412084
 20
112.514676
 30
0.0
 10
106.155562
 20
112.514676
 30
0.0
 10
106.155562
 20
106.382840
 30
0.0
 10
117.368064
 20
106.382840
 30
0.0
 10
117.368064
 20
100.754691
 30
0.0
 10
106.155562
 20
100.754691
 30
0.0
 10
106.155562
 20
94.228662
 30
0.0
 10
120.412084
 20
94.228662
 30
0.0
 10
120.412084
 20
88.315816
 30
0.0
 10
99.038253
 20
88.315816
 30
0.0
 10
99.038253
 20
118.208524
 30
0.0
 10
120.412084
 20
118.208524
 30
0.0
  0
LWPOLYLINE
  5
16e
100
AcDbEntity
  8
Layer_1
 62
7
100
AcDbPolyline
 90
8
 70
1
 10
139.311289
 20
118.208524
 30
0.0
 10
148.662340
 20
88.315816
 30
0.0
 10
141.128943
 20
88.315816
 30
0.0
 10
139.311289
 20
94.469554
 30
0.0
 10
129.631745
 20
94.469554
 30
0.0
 10
127.748400
 20
88.315816
 30
0.0
 10
121.616555
 20
88.315816
 30
0.0
 10
131.186604
 20
118.208524
 30
0.0
  0
LWPOLYLINE
  5
16f
100
AcDbEntity
  8
Layer_1
 62
7
100
AcDbPolyline
 90
3
 70
1
 10
131.318002
 20
99.988208
 30
0.0
 10
137.668829
 20
99.988208
 30
0.0
 10
134.493419
 20
110.478031
 30
0.0
  0
SPLINE
  5
170
100
AcDbEntity
  8
Layer_1
 62
7
100
AcDbSpline
 70
8
 71
3
 72
8
 73
4
 74
0
 40
0
 40
0
 40
0
 40
0
 40
1
 40
1
 40
1
 40
1
 10
165.021197
 20
118.208524
 30
0.0
 10
167.444731
 20
118.208524
 30
0.0
 10
169.386479
 20
117.923832
 30
0.0
 10
170.846442
 20
117.354448
 30
0.0
  0
SPLINE
  5
171
100
AcDbEntity
  8
Layer_1
 62
7
100
AcDbSpline
 70
8
 71
3
 72
8
 73
4
 74
0
 40
0
 40
0
 40
0
 40
0
 40
1
 40
1
 40
1
 40
1
 10
170.846442
 20
117.354448
 30
0.0
 10
172.321001
 20
116.799661
 30
0.0
 10
173.540069
 20
115.770386
 30
0.0
 10
174.503645
 20
114.266624
 30
0.0
  0
SPLINE
  5
172
100
AcDbEntity
  8
Layer_1
 62
7
100
AcDbSpline
 70
8
 71
3
 72
8
 73
4
 74
0
 40
0
 40
0
 40
0
 40
0
 40
1
 40
1
 40
1
 40
1
 10
174.503645
 20
114.266624
 30
0.0
 10
175.467216
 20
112.762867
 30
0.0
 10
175.949001
 20
111.091212
 30
0.0
 10
175.949001
 20
109.251658
 30
0.0
  0
SPLINE
  5
173
100
AcDbEntity
  8
Layer_1
 62
7
100
AcDbSpline
 70
8
 71
3
 72
8
 73
4
 74
0
 40
0
 40
0
 40
0
 40
0
 40
1
 40
1
 40
1
 40
1
 10
175.949001
 20
109.251658
 30
0.0
 10
175.949001
 20
105.660154
 30
0.0
 10
174.218948
 20
103.083323
 30
0.0
 10
170.758841
 20
101.521165
 30
0.0
  0
LWPOLYLINE
  5
174
100
AcDbEntity
  8
Layer_1
 62
7
100
AcDbPolyline
 90
5
 70
0
 10
158.933157
 20
100.163402
 30
0.0
 10
158.933157
 20
88.315816
 30
0.0
 10
151.881546
 20
88.315816
 30
0.0
 10
151.881546
 20
118.208524
 30
0.0
 10
165.021197
 20
118.208524
 30
0.0
  0
LWPOLYLINE
  5
175
100
AcDbEntity
  8
Layer_1
 62
7
100
AcDbPolyline
 90
5
 70
0
 10
170.758841
 20
101.521165
 30
0.0
 10
176.277495
 20
88.315816
 30
0.0
 10
168.547002
 20
88.315816
 30
0.0
 10
163.948123
 20
100.163402
 30
0.0
 10
158.933157
 20
100.163402
 30
0.0
  0
SPLINE
  5
176
100
AcDbEntity
  8
Layer_1
 62
7
100
AcDbSpline
 70
8
 71
3
 72
8
 73
4
 74
0
 40
0
 40
0
 40
0
 40
0
 40
1
 40
1
 40
1
 40
1
 10
163.225445
 20
105.265969
 30
0.0
 10
164.627007
 20
105.265969
 30
0.0
 10
165.641680
 20
105.360866
 30
0.0
 10
166.269465
 20
105.550658
 30
0.0
  0
SPLINE
  5
177
100
AcDbEntity
  8
Layer_1
 62
7
100
AcDbSpline
 70
8
 71
3
 72
8
 73
4
 74
0
 40
0
 40
0
 40
0
 40
0
 40
1
 40
1
 40
1
 40
1
 10
166.269465
 20
105.550658
 30
0.0
 10
166.911845
 20
105.755053
 30
0.0
 10
167.481229
 20
106.193042
 30
0.0
 10
167.977616
 20
106.864625
 30
0.0
  0
SPLINE
  5
178
100
AcDbEntity
  8
Layer_1
 62
7
100
AcDbSpline
 70
8
 71
3
 72
8
 73
4
 74
0
 40
0
 40
0
 40
0
 40
0
 40
1
 40
1
 40
1
 40
1
 10
167.977616
 20
106.864625
 30
0.0
 10
168.474003
 20
107.550805
 30
0.0
 10
168.722196
 20
108.331884
 30
0.0
 10
168.722196
 20
109.207861
 30
0.0
  0
SPLINE
  5
179
100
AcDbEntity
  8
Layer_1
 62
7
100
AcDbSpline
 70
8
 71
3
 72
8
 73
4
 74
0
 40
0
 40
0
 40
0
 40
0
 40
1
 40
1
 40
1
 40
1
 10
168.722196
 20
109.207861
 30
0.0
 10
168.722196
 20
110.040040
 30
0.0
 10
168.474003
 20
110.784620
 30
0.0
 10
167.977616
 20
111.441602
 30
0.0
  0
SPLINE
  5
17a
100
AcDbEntity
  8
Layer_1
 62
7
100
AcDbSpline
 70
8
 71
3
 72
8
 73
4
 74
0
 40
0
 40
0
 40
0
 40
0
 40
1
 40
1
 40
1
 40
1
 10
167.977616
 20
111.441602
 30
0.0
 10
167.481229
 20
112.098584
 30
0.0
 10
166.941043
 20
112.500075
 30
0.0
 10
166.357058
 20
112.646074
 30
0.0
  0
SPLINE
  5
17b
100
AcDbEntity
  8
Layer_1
 62
7
100
AcDbSpline
 70
8
 71
3
 72
8
 73
4
 74
0
 40
0
 40
0
 40
0
 40
0
 40
1
 40
1
 40
1
 40
1
 10
166.357058
 20
112.646074
 30
0.0
 10
165.773073
 20
112.806669
 30
0.0
 10
164.678102
 20
112.886966
 30
0.0
 10
163.072145
 20
112.886966
 30
0.0
  0
LWPOLYLINE
  5
17c
100
AcDbEntity
  8
Layer_1
 62
7
100
AcDbPolyline
 90
3
 70
0
 10
158.933157
 20
112.886966
 30
0.0
 10
158.933157
 20
105.265969
 30
0.0
 10
163.225445
 20
105.265969
 30
0.0
  0
LWPOLYLINE
  5
17d
100
AcDbEntity
  8
Layer_1
 62
7
100
AcDbPolyline
 90
2
 70
0
 10
163.072145
 20
112.886966
 30
0.0
 10
158.933157
 20
112.886966
 30
0.0
  0
SPLINE
  5
17e
100
AcDbEntity
  8
Layer_1
 62
7
100
AcDbSpline
 70
8
 71
3
 72
8
 73
4
 74
0
 40
0
 40
0
 40
0
 40
0
 40
1
 40
1
 40
1
 40
1
 10
197.541830
 20
106.623732
 30
0.0
 10
197.439636
 20
110.843021
 30
0.0
 10
195.797181
 20
112.952665
 30
0.0
 10
192.614465
 20
112.952665
 30
0.0
  0
SPLINE
  5
17f
100
AcDbEntity
  8
Layer_1
 62
7
100
AcDbSpline
 70
8
 71
3
 72
8
 73
4
 74
0
 40
0
 40
0
 40
0
 40
0
 40
1
 40
1
 40
1
 40
1
 10
192.614465
 20
112.952665
 30
0.0
 10
188.964561
 20
112.952665
 30
0.0
 10
187.139608
 20
109.704251
 30
0.0
 10
187.139608
 20
103.207422
 30
0.0
  0
SPLINE
  5
180
100
AcDbEntity
  8
Layer_1
 62
7
100
AcDbSpline
 70
8
 71
3
 72
8
 73
4
 74
0
 40
0
 40
0
 40
0
 40
0
 40
1
 40
1
 40
1
 40
1
 10
187.139608
 20
103.207422
 30
0.0
 10
187.139608
 20
99.455323
 30
0.0
 10
187.635995
 20
96.907690
 30
0.0
 10
188.628769
 20
95.564523
 30
0.0
  0
SPLINE
  5
181
100
AcDbEntity
  8
Layer_1
 62
7
100
AcDbSpline
 70
8
 71
3
 72
8
 73
4
 74
0
 40
0
 40
0
 40
0
 40
0
 40
1
 40
1
 40
1
 40
1
 10
188.628769
 20
95.564523
 30
0.0
 10
189.621543
 20
94.235962
 30
0.0
 10
191.008506
 20
93.571682
 30
0.0
 10
192.789659
 20
93.571682
 30
0.0
  0
SPLINE
  5
182
100
AcDbEntity
  8
Layer_1
 62
7
100
AcDbSpline
 70
8
 71
3
 72
8
 73
4
 74
0
 40
0
 40
0
 40
0
 40
0
 40
1
 40
1
 40
1
 40
1
 10
192.789659
 20
93.571682
 30
0.0
 10
195.680382
 20
93.571682
 30
0.0
 10
197.446934
 20
95.455030
 30
0.0
 10
198.089315
 20
99.221726
 30
0.0
  0
LWPOLYLINE
  5
183
100
AcDbEntity
  8
Layer_1
 62
7
100
AcDbPolyline
 90
2
 70
0
 10
204.878138
 20
107.083616
 30
0.0
 10
197.541830
 20
106.623732
 30
0.0
  0
SPLINE
  5
184
100
AcDbEntity
  8
Layer_1
 62
7
100
AcDbSpline
 70
8
 71
3
 72
8
 73
4
 74
0
 40
0
 40
0
 40
0
 40
0
 40
1
 40
1
 40
1
 40
1
 10
204.878138
 20
98.805639
 30
0.0
 10
204.440147
 20
95.228736
 30
0.0
 10
203.104283
 20
92.505909
 30
0.0
 10
200.870548
 20
90.637158
 30
0.0
  0
SPLINE
  5
185
100
AcDbEntity
  8
Layer_1
 62
7
100
AcDbSpline
 70
8
 71
3
 72
8
 73
4
 74
0
 40
0
 40
0
 40
0
 40
0
 40
1
 40
1
 40
1
 40
1
 10
200.870548
 20
90.637158
 30
0.0
 10
198.651403
 20
88.783007
 30
0.0
 10
195.928573
 20
87.855932
 30
0.0
 10
192.702058
 20
87.855932
 30
0.0
  0
SPLINE
  5
186
100
AcDbEntity
  8
Layer_1
 62
7
100
AcDbSpline
 70
8
 71
3
 72
8
 73
4
 74
0
 40
0
 40
0
 40
0
 40
0
 40
1
 40
1
 40
1
 40
1
 10
192.702058
 20
87.855932
 30
0.0
 10
188.745565
 20
87.855932
 30
0.0
 10
185.526351
 20
89.220996
 30
0.0
 10
183.044416
 20
91.951124
 30
0.0
  0
SPLINE
  5
187
100
AcDbEntity
  8
Layer_1
 62
7
100
AcDbSpline
 70
8
 71
3
 72
8
 73
4
 74
0
 40
0
 40
0
 40
0
 40
0
 40
1
 40
1
 40
1
 40
1
 10
183.044416
 20
91.951124
 30
0.0
 10
180.577083
 20
94.681252
 30
0.0
 10
179.343417
 20
98.455251
 30
0.0
 10
179.343417
 20
103.273121
 30
0.0
  0
SPLINE
  5
188
100
AcDbEntity
  8
Layer_1
 62
7
100
AcDbSpline
 70
8
 71
3
 72
8
 73
4
 74
0
 40
0
 40
0
 40
0
 40
0
 40
1
 40
1
 40
1
 40
1
 10
179.343417
 20
103.273121
 30
0.0
 10
179.343417
 20
107.784402
 30
0.0
 10
180.540585
 20
111.478103
 30
0.0
 10
182.934921
 20
114.354225
 30
0.0
  0
SPLINE
  5
189
100
AcDbEntity
  8
Layer_1
 62
7
100
AcDbSpline
 70
8
 71
3
 72
8
 73
4
 74
0
 40
0
 40
0
 40
0
 40
0
 40
1
 40
1
 40
1
 40
1
 10
182.934921
 20
114.354225
 30
0.0
 10
185.329257
 20
117.230346
 30
0.0
 10
188.599571
 20
118.668407
 30
0.0
 10
192.745863
 20
118.668407
 30
0.0
  0
SPLINE
  5
18a
100
AcDbEntity
  8
Layer_1
 62
7
100
AcDbSpline
 70
8
 71
3
 72
8
 73
4
 74
0
 40
0
 40
0
 40
0
 40
0
 40
1
 40
1
 40
1
 40
1
 10
192.745863
 20
118.668407
 30
0.0
 10
199.928871
 20
118.668407
 30
0.0
 10
203.972963
 20
114.806810
 30
0.0
 10
204.878138
 20
107.083616
 30
0.0
  0
LWPOLYLINE
  5
18b
100
AcDbEntity
  8
Layer_1
 62
7
100
AcDbPolyline
 90
2
 70
0
 10
198.089315
 20
99.221726
 30
0.0
 10
204.878138
 20
98.805639
 30
0.0
  0
LWPOLYLINE
  5
18c
100
AcDbEntity
  8
Layer_1
 62
7
100
AcDbPolyline
 90
1
 70
1
 10
204.878138
 20
107.083616
 30
0.0
  0
LWPOLYLINE
  5
18d
100
AcDbEntity
  8
Layer_1
 62
7
100
AcDbPolyline
 90
12
 70
1
 10
232.011516
 20
118.208524
 30
0.0
 10
232.011516
 20
88.315816
 30
0.0
 10
225.135099
 20
88.315816
 30
0.0
 10
225.135099
 20
100.645188
 30
0.0
 10
215.784048
 20
100.645188
 30
0.0
 10
215.784048
 20
88.315816
 30
0.0
 10
208.907631
 20
88.315816
 30
0.0
 10
208.907631
 20
118.208524
 30
0.0
 10
215.784048
 20
118.208524
 30
0.0
 10
215.784048
 20
106.558034
 30
0.0
 10
225.135099
 20
106.558034
 30
0.0
 10
225.135099
 20
118.208524
 30
0.0
  0
ENDSEC
  0
SECTION
  2
OBJECTS
  0
DICTIONARY
  5
C
330
0
100
AcDbDictionary
  3
ACAD_GROUP
350
D
  3
ACAD_MLINESTYLE
350
17
  0
DICTIONARY
  5
D
330
C
100
AcDbDictionary
  0
DICTIONARY
  5
1A
330
C
100
AcDbDictionary
  0
DICTIONARY
  5
17
330
C
100
AcDbDictionary
  3
STANDARD
350
18
  0
DICTIONARY
  5
19
330
C
100
AcDbDictionary
  0
ENDSEC
  0
EOF
